<svg width="516" height="124" viewBox="0 0 516 124" fill="none" xmlns="http://www.w3.org/2000/svg">
<path d="M32.2443 0H9.28244H0V124H128V0H38.7583V23.9811H100.316V100.019H32.2443V0Z" fill="#F2EFEF"/>
<path d="M41.5267 91.6842V33.0474H88.4275L41.5267 91.6842Z" fill="#F2EFEF"/>
<path d="M90.5445 34.9482L90.5445 93.585H43.6438L90.5445 34.9482Z" fill="#F2EFEF"/>
<path d="M181.9 34.3C185.5 34.3 190.2 34.8333 196 35.9L195.8 43.4C190.333 42.3333 185.7 41.8 181.9 41.8C178.033 41.8 175.233 42.5667 173.5 44.1C171.833 45.6333 171 47.9667 171 51.1V53.7C171 55.3667 171.2 56.7 171.6 57.7C172.067 58.6333 172.867 59.4667 174 60.2C175.133 60.8667 176.833 61.5667 179.1 62.3L188.4 65.4C192.867 66.9333 196 68.9667 197.8 71.5C199.667 74.0333 200.6 77.7333 200.6 82.6V84.5C200.6 90.4333 198.867 94.8667 195.4 97.8C192 100.733 186.4 102.2 178.6 102.2C174.8 102.2 169.933 101.533 164 100.2L164.2 92.5C169.733 93.8333 174.467 94.5 178.4 94.5C183.4 94.5 186.933 93.7667 189 92.3C191.067 90.7667 192.1 88.4 192.1 85.2V81.9C192.1 79.5667 191.567 77.8 190.5 76.6C189.5 75.3333 187.7 74.2667 185.1 73.4L174.8 70C170.2 68.4667 167 66.5 165.2 64.1C163.4 61.6333 162.5 57.9333 162.5 53V51.9C162.5 46.1 164.033 41.7333 167.1 38.8C170.233 35.8 175.167 34.3 181.9 34.3ZM220.594 58.7C224.26 53.5667 228.527 51 233.394 51C237.66 51 240.927 52.4667 243.194 55.4C245.527 58.2667 246.694 62.3667 246.694 67.7V101H238.194V68.9C238.194 62.2333 236.027 58.9 231.694 58.9C229.76 58.9 227.794 59.6333 225.794 61.1C223.794 62.5667 222.06 64.5667 220.594 67.1V101H212.094V32.7H220.594V58.7ZM276.138 51C281.872 51 286.038 52.3 288.638 54.9C291.305 57.4333 292.638 61.5 292.638 67.1V101H284.538V93.2C280.672 99.2 276.305 102.2 271.438 102.2C267.572 102.2 264.472 100.867 262.138 98.2C259.872 95.5333 258.738 91.9 258.738 87.3V84.5C258.738 80.5 260.105 77.2 262.838 74.6C265.572 71.9333 269.238 70.6 273.838 70.6C276.372 70.6 279.805 71.0333 284.138 71.9V66.4C284.138 63.5333 283.472 61.4667 282.138 60.2C280.872 58.9333 278.872 58.3 276.138 58.3C272.938 58.3 268.438 58.8 262.638 59.8V52.5C268.905 51.5 273.405 51 276.138 51ZM275.938 77.2C273.138 77.2 271.005 77.9333 269.538 79.4C268.072 80.8667 267.338 82.9333 267.338 85.6V86.7C267.338 89.1667 267.905 91.1 269.038 92.5C270.172 93.9 271.605 94.6 273.338 94.6C275.138 94.6 276.972 93.8333 278.838 92.3C280.772 90.7 282.538 88.4667 284.138 85.6V77.9C281.605 77.4333 278.872 77.2 275.938 77.2ZM328.46 51C329.393 51 330.127 51.0667 330.66 51.2V60.8C329.66 60.6 328.36 60.5 326.76 60.5C322.093 60.5 318.393 62.8333 315.66 67.5V101H307.16V52.2H315.16V59.5C316.96 56.7667 318.96 54.6667 321.16 53.2C323.427 51.7333 325.86 51 328.46 51ZM355.996 51C361.596 51 365.863 52.5333 368.796 55.6C371.729 58.6667 373.196 63.1 373.196 68.9V79.2H347.496V85.1C347.496 88.5 348.296 90.9667 349.896 92.5C351.563 93.9667 354.163 94.7 357.696 94.7C361.163 94.7 365.496 94.1667 370.696 93.1L370.896 100.5C364.696 101.633 360.263 102.2 357.596 102.2C350.996 102.2 346.229 100.767 343.296 97.9C340.429 95.0333 338.996 90.6 338.996 84.6V68.9C338.996 63.1 340.396 58.6667 343.196 55.6C346.063 52.5333 350.329 51 355.996 51ZM355.996 58.1C353.396 58.1 351.329 58.9333 349.796 60.6C348.263 62.2 347.496 64.5333 347.496 67.6V72.4H364.696V67.9C364.696 64.7 363.896 62.2667 362.296 60.6C360.763 58.9333 358.663 58.1 355.996 58.1ZM393.723 58.7C395.456 56.2333 397.456 54.3333 399.723 53C401.989 51.6667 404.356 51 406.823 51C410.956 51 414.156 52.4667 416.423 55.4C418.689 58.2667 419.823 62.4667 419.823 68V83.8C419.823 89.8667 418.389 94.4667 415.523 97.6C412.656 100.667 408.223 102.2 402.223 102.2C396.356 102.2 392.056 100.7 389.323 97.7C386.589 94.7 385.223 90.1333 385.223 84V32.7H393.723V58.7ZM404.823 58.6C402.889 58.6 400.923 59.3333 398.923 60.8C396.923 62.2667 395.189 64.2667 393.723 66.8V85C393.723 88.2667 394.456 90.7667 395.923 92.5C397.456 94.2333 399.556 95.1 402.223 95.1C408.289 95.1 411.323 91.6667 411.323 84.8V69.2C411.323 62.1333 409.156 58.6 404.823 58.6ZM448.4 51C454.133 51 458.3 52.3 460.9 54.9C463.567 57.4333 464.9 61.5 464.9 67.1V101H456.8V93.2C452.933 99.2 448.567 102.2 443.7 102.2C439.833 102.2 436.733 100.867 434.4 98.2C432.133 95.5333 431 91.9 431 87.3V84.5C431 80.5 432.367 77.2 435.1 74.6C437.833 71.9333 441.5 70.6 446.1 70.6C448.633 70.6 452.067 71.0333 456.4 71.9V66.4C456.4 63.5333 455.733 61.4667 454.4 60.2C453.133 58.9333 451.133 58.3 448.4 58.3C445.2 58.3 440.7 58.8 434.9 59.8V52.5C441.167 51.5 445.667 51 448.4 51ZM448.2 77.2C445.4 77.2 443.267 77.9333 441.8 79.4C440.333 80.8667 439.6 82.9333 439.6 85.6V86.7C439.6 89.1667 440.167 91.1 441.3 92.5C442.433 93.9 443.867 94.6 445.6 94.6C447.4 94.6 449.233 93.8333 451.1 92.3C453.033 90.7 454.8 88.4667 456.4 85.6V77.9C453.867 77.4333 451.133 77.2 448.2 77.2ZM515.022 52.2L492.622 119.5H484.122L490.522 101H487.322L473.422 52.2H482.722L493.222 94.9L506.222 52.2H515.022Z" fill="#F2EFEF" fill-opacity="0.92"/>
<path d="M126.625 20.875H108.456C108.456 20.875 91 20.875 91 44C91 62.0375 101.688 81 101.688 81C101.688 81 95.6313 48.625 108.1 48.625H126.625V62.5L148 34.75L126.625 7V20.875Z" fill="#3490DC"/>
</svg>
